<mxfile host="app.diagrams.net" agent="Mozilla/5.0 (Windows NT 10.0; Win64; x64) AppleWebKit/537.36 (KHTML, like Gecko) Chrome/133.0.0.0 Safari/537.36" version="26.0.15">
  <diagram name="Página-1" id="FesTNeLCnlPc5JAb9kmv">
    <mxGraphModel dx="1434" dy="772" grid="1" gridSize="10" guides="1" tooltips="1" connect="1" arrows="1" fold="1" page="1" pageScale="1" pageWidth="827" pageHeight="1169" math="0" shadow="0">
      <root>
        <mxCell id="0" />
        <mxCell id="1" parent="0" />
        <mxCell id="RB2d1xRwixpTrkwHHDmE-1" value="" style="ellipse;whiteSpace=wrap;html=1;fillColor=#008a00;fontColor=#ffffff;strokeColor=#005700;" vertex="1" parent="1">
          <mxGeometry x="389" width="50" height="40" as="geometry" />
        </mxCell>
        <mxCell id="RB2d1xRwixpTrkwHHDmE-13" value="" style="ellipse;whiteSpace=wrap;html=1;fillColor=#e51400;fontColor=#ffffff;strokeColor=#B20000;" vertex="1" parent="1">
          <mxGeometry y="325" width="40" height="37.5" as="geometry" />
        </mxCell>
        <mxCell id="RB2d1xRwixpTrkwHHDmE-16" value="" style="ellipse;whiteSpace=wrap;html=1;fillColor=#e51400;fontColor=#ffffff;strokeColor=#B20000;" vertex="1" parent="1">
          <mxGeometry x="787" y="323.75" width="40" height="37.5" as="geometry" />
        </mxCell>
        <mxCell id="RB2d1xRwixpTrkwHHDmE-17" value="" style="endArrow=classic;startArrow=classic;html=1;rounded=0;" edge="1" parent="1">
          <mxGeometry width="50" height="50" relative="1" as="geometry">
            <mxPoint x="414" y="150" as="sourcePoint" />
            <mxPoint x="414" y="40" as="targetPoint" />
          </mxGeometry>
        </mxCell>
        <mxCell id="RB2d1xRwixpTrkwHHDmE-18" value="&lt;font style=&quot;vertical-align: inherit;&quot;&gt;&lt;font face=&quot;Comic Sans MS&quot; style=&quot;vertical-align: inherit; font-size: 13px;&quot;&gt;Eu nunca contaria seu segredo para ninguem se voce confiasse em mim&lt;/font&gt;&lt;/font&gt;" style="whiteSpace=wrap;html=1;fillColor=#0050ef;strokeColor=#001DBC;fontColor=#ffffff;" vertex="1" parent="1">
          <mxGeometry x="304" y="150" width="220" height="70" as="geometry" />
        </mxCell>
        <mxCell id="RB2d1xRwixpTrkwHHDmE-20" value="" style="endArrow=classic;startArrow=classic;html=1;rounded=0;" edge="1" parent="1">
          <mxGeometry width="50" height="50" relative="1" as="geometry">
            <mxPoint x="414" y="300" as="sourcePoint" />
            <mxPoint x="413" y="220" as="targetPoint" />
          </mxGeometry>
        </mxCell>
        <mxCell id="RB2d1xRwixpTrkwHHDmE-21" value="&lt;font face=&quot;Comic Sans MS&quot;&gt;&lt;span style=&quot;font-size: 17px;&quot;&gt;Sera que Faço?&lt;/span&gt;&lt;/font&gt;" style="rhombus;whiteSpace=wrap;html=1;fillColor=#ffff88;strokeColor=#36393d;" vertex="1" parent="1">
          <mxGeometry x="319" y="297.5" width="190" height="80" as="geometry" />
        </mxCell>
        <mxCell id="RB2d1xRwixpTrkwHHDmE-22" value="" style="endArrow=classic;startArrow=classic;html=1;rounded=0;" edge="1" parent="1">
          <mxGeometry width="50" height="50" relative="1" as="geometry">
            <mxPoint x="240" y="337" as="sourcePoint" />
            <mxPoint x="319" y="337" as="targetPoint" />
          </mxGeometry>
        </mxCell>
        <mxCell id="RB2d1xRwixpTrkwHHDmE-26" value="&lt;font face=&quot;Comic Sans MS&quot;&gt;Conto pra tudo o mundo&lt;/font&gt;" style="whiteSpace=wrap;html=1;fillColor=#0050ef;fontColor=#ffffff;strokeColor=#001DBC;" vertex="1" parent="1">
          <mxGeometry x="120" y="307.5" width="120" height="72.5" as="geometry" />
        </mxCell>
        <mxCell id="RB2d1xRwixpTrkwHHDmE-33" value="Sim" style="text;html=1;align=center;verticalAlign=middle;resizable=0;points=[];autosize=1;strokeColor=none;fillColor=none;" vertex="1" parent="1">
          <mxGeometry x="260" y="318" width="40" height="30" as="geometry" />
        </mxCell>
        <mxCell id="RB2d1xRwixpTrkwHHDmE-35" value="" style="endArrow=classic;startArrow=classic;html=1;rounded=0;" edge="1" parent="1">
          <mxGeometry width="50" height="50" relative="1" as="geometry">
            <mxPoint x="509" y="337" as="sourcePoint" />
            <mxPoint x="590" y="337" as="targetPoint" />
          </mxGeometry>
        </mxCell>
        <mxCell id="RB2d1xRwixpTrkwHHDmE-36" value="Não" style="text;html=1;align=center;verticalAlign=middle;resizable=0;points=[];autosize=1;strokeColor=none;fillColor=none;" vertex="1" parent="1">
          <mxGeometry x="525" y="318" width="50" height="30" as="geometry" />
        </mxCell>
        <mxCell id="RB2d1xRwixpTrkwHHDmE-37" value="&lt;font face=&quot;Comic Sans MS&quot;&gt;Ninguem vai saber o teu segredo&lt;/font&gt;" style="whiteSpace=wrap;html=1;fillColor=#0050ef;fontColor=#ffffff;strokeColor=#001DBC;" vertex="1" parent="1">
          <mxGeometry x="590" y="307.5" width="120" height="70" as="geometry" />
        </mxCell>
        <mxCell id="RB2d1xRwixpTrkwHHDmE-38" value="" style="endArrow=classic;startArrow=classic;html=1;rounded=0;entryX=0;entryY=0.5;entryDx=0;entryDy=0;" edge="1" parent="1" target="RB2d1xRwixpTrkwHHDmE-16">
          <mxGeometry width="50" height="50" relative="1" as="geometry">
            <mxPoint x="710" y="343.25" as="sourcePoint" />
            <mxPoint x="780" y="343" as="targetPoint" />
            <Array as="points">
              <mxPoint x="780" y="343" />
            </Array>
          </mxGeometry>
        </mxCell>
        <mxCell id="RB2d1xRwixpTrkwHHDmE-40" value="" style="endArrow=classic;startArrow=classic;html=1;rounded=0;" edge="1" parent="1">
          <mxGeometry width="50" height="50" relative="1" as="geometry">
            <mxPoint x="40" y="348" as="sourcePoint" />
            <mxPoint x="120" y="348" as="targetPoint" />
          </mxGeometry>
        </mxCell>
      </root>
    </mxGraphModel>
  </diagram>
</mxfile>
